<svg width="21" height="16" viewBox="0 0 21 16" fill="none" xmlns="http://www.w3.org/2000/svg">
<path d="M6.66109 16C14.0904 16 18.1533 9.84491 18.1533 4.50777C18.1533 4.3329 18.1497 4.15892 18.1417 3.98561C18.9303 3.41554 19.6159 2.70395 20.1566 1.89429C19.433 2.21582 18.6542 2.43234 17.8372 2.52997C18.671 2.02998 19.3114 1.23867 19.6134 0.295562C18.8329 0.758386 17.9686 1.0947 17.0488 1.27607C16.3114 0.491037 15.2617 0 14.1003 0C11.8695 0 10.0605 1.80898 10.0605 4.03868C10.0605 4.35574 10.0961 4.66384 10.1651 4.95963C6.80842 4.79102 3.83175 3.18356 1.83984 0.739802C1.49255 1.33652 1.2926 2.0302 1.2926 2.76978C1.2926 4.17101 2.00576 5.40812 3.09016 6.13202C2.4276 6.11165 1.80513 5.92938 1.2608 5.62666C1.25991 5.64345 1.25991 5.66047 1.25991 5.67816C1.25991 7.63447 2.65241 9.26767 4.50035 9.6378C4.16112 9.73027 3.80421 9.77998 3.43565 9.77998C3.17547 9.77998 2.92245 9.75401 2.67637 9.70721C3.19047 11.3118 4.68171 12.4797 6.44971 12.5126C5.06706 13.5961 3.32549 14.2416 1.43322 14.2416C1.10742 14.2416 0.785889 14.223 0.469727 14.1856C2.25721 15.3312 4.37966 16 6.66109 16Z" fill="#323232"/>
</svg>
