<svg width="27" height="16" viewBox="0 0 27 16" fill="none" xmlns="http://www.w3.org/2000/svg">
<path d="M24.3363 2.13333H16.8696V0H24.3363V2.13333ZM26.1496 12.8C25.723 14.1867 24.0163 16 20.7096 16C17.403 16 14.7363 14.1867 14.7363 9.92C14.7363 5.76 17.1896 3.62667 20.603 3.62667C23.9096 3.62667 25.9363 5.54667 26.363 8.32C26.4696 8.85333 26.4696 9.6 26.4696 10.6667H17.9363C18.043 14.08 21.6696 14.1867 22.843 12.8H26.1496ZM17.9363 8.53333H23.2696C23.163 6.93333 22.0963 6.18667 20.603 6.18667C19.1096 6.18667 18.2563 6.93333 17.9363 8.53333ZM7.80296 16H0.869629V0H8.3363C14.203 0.106667 14.3096 5.76 11.2163 7.36C14.843 8.74667 14.9496 16 7.80296 16ZM4.06963 6.4H7.90963C10.5763 6.4 11.003 3.2 7.58963 3.2H4.06963V6.4ZM7.6963 9.6H4.06963V12.8H7.58963C10.8963 12.8 10.683 9.6 7.6963 9.6Z" fill="#323232"/>
</svg>
