<svg width="21" height="20" viewBox="0 0 21 20" fill="none" xmlns="http://www.w3.org/2000/svg">
<path d="M10.4697 1.83333C13.1364 1.83333 13.4697 1.83333 14.5531 1.91667C17.3031 2 18.5531 3.33333 18.6364 6C18.7197 7.08333 18.7197 7.33333 18.7197 10C18.7197 12.6667 18.7197 13 18.6364 14C18.5531 16.6667 17.2197 18 14.5531 18.0833C13.4697 18.1667 13.2197 18.1667 10.4697 18.1667C7.80306 18.1667 7.46973 18.1667 6.46973 18.0833C3.71973 18 2.46973 16.6667 2.38639 14C2.30306 12.9167 2.30306 12.6667 2.30306 10C2.30306 7.33333 2.30306 7 2.38639 6C2.46973 3.33333 3.80306 2 6.46973 1.91667C7.46973 1.83333 7.80306 1.83333 10.4697 1.83333ZM10.4697 0C7.71973 0 7.38639 0 6.38639 0.0833333C2.71973 0.25 0.719727 2.25 0.55306 5.91667C0.469727 6.91667 0.469727 7.25 0.469727 10C0.469727 12.75 0.469727 13.0833 0.55306 14.0833C0.719727 17.75 2.71973 19.75 6.38639 19.9167C7.38639 20 7.71973 20 10.4697 20C13.2197 20 13.5531 20 14.5531 19.9167C18.2197 19.75 20.2197 17.75 20.3864 14.0833C20.4697 13.0833 20.4697 12.75 20.4697 10C20.4697 7.25 20.4697 6.91667 20.3864 5.91667C20.2197 2.25 18.2197 0.25 14.5531 0.0833333C13.5531 0 13.2197 0 10.4697 0ZM10.4697 4.83333C7.63639 4.83333 5.30306 7.16667 5.30306 10C5.30306 12.8333 7.63639 15.1667 10.4697 15.1667C13.3031 15.1667 15.6364 12.8333 15.6364 10C15.6364 7.16667 13.3031 4.83333 10.4697 4.83333ZM10.4697 13.3333C8.63639 13.3333 7.13639 11.8333 7.13639 10C7.13639 8.16667 8.63639 6.66667 10.4697 6.66667C12.3031 6.66667 13.8031 8.16667 13.8031 10C13.8031 11.8333 12.3031 13.3333 10.4697 13.3333ZM15.8031 3.5C15.1364 3.5 14.6364 4 14.6364 4.66667C14.6364 5.33333 15.1364 5.83333 15.8031 5.83333C16.4697 5.83333 16.9697 5.33333 16.9697 4.66667C16.9697 4 16.4697 3.5 15.8031 3.5Z" fill="#323232"/>
</svg>
