<svg width="257" height="19" viewBox="0 0 257 19" fill="none" xmlns="http://www.w3.org/2000/svg">
<path d="M9.61406 0.9375V18H6.11015V0.9375H9.61406ZM14.8641 0.9375V3.69141H0.942184V0.9375H14.8641ZM32.1572 15.2578V18H23.0752V15.2578H32.1572ZM24.2236 0.9375V18H20.708V0.9375H24.2236ZM30.9736 7.88672V10.5586H23.0752V7.88672H30.9736ZM32.1455 0.9375V3.69141H23.0752V0.9375H32.1455ZM47.9386 12.3398H51.4425C51.3722 13.4883 51.0558 14.5078 50.4933 15.3984C49.9386 16.2891 49.1612 16.9844 48.1612 17.4844C47.1691 17.9844 45.9737 18.2344 44.5753 18.2344C43.4816 18.2344 42.5011 18.0469 41.6339 17.6719C40.7667 17.2891 40.0245 16.7422 39.4073 16.0312C38.798 15.3203 38.3331 14.4609 38.0128 13.4531C37.6925 12.4453 37.5323 11.3164 37.5323 10.0664V8.88281C37.5323 7.63281 37.6964 6.50391 38.0245 5.49609C38.3605 4.48047 38.837 3.61719 39.4542 2.90625C40.0792 2.19531 40.8253 1.64844 41.6925 1.26562C42.5597 0.882812 43.5284 0.691406 44.5987 0.691406C46.0206 0.691406 47.2198 0.949219 48.1964 1.46484C49.1808 1.98047 49.9425 2.69141 50.4816 3.59766C51.0284 4.50391 51.3566 5.53516 51.4659 6.69141H47.9503C47.9112 6.00391 47.7745 5.42188 47.5402 4.94531C47.3058 4.46094 46.9503 4.09766 46.4737 3.85547C46.005 3.60547 45.38 3.48047 44.5987 3.48047C44.0128 3.48047 43.5011 3.58984 43.0636 3.80859C42.6261 4.02734 42.2589 4.35938 41.962 4.80469C41.6652 5.25 41.4425 5.8125 41.2941 6.49219C41.1534 7.16406 41.0831 7.95312 41.0831 8.85938V10.0664C41.0831 10.9492 41.1495 11.7266 41.2823 12.3984C41.4152 13.0625 41.6183 13.625 41.8917 14.0859C42.173 14.5391 42.5323 14.8828 42.9698 15.1172C43.4152 15.3438 43.9503 15.457 44.5753 15.457C45.3097 15.457 45.9152 15.3398 46.3917 15.1055C46.8683 14.8711 47.2316 14.5234 47.4816 14.0625C47.7394 13.6016 47.8917 13.0273 47.9386 12.3398ZM68.97 7.88672V10.6289H60.0637V7.88672H68.97ZM61.1067 0.9375V18H57.5911V0.9375H61.1067ZM71.4778 0.9375V18H67.9739V0.9375H71.4778ZM82.1147 0.9375V18H78.6108V0.9375H82.1147ZM98.1305 13.5352C98.1305 13.2305 98.0836 12.957 97.9898 12.7148C97.9039 12.4648 97.7398 12.2383 97.4977 12.0352C97.2555 11.8242 96.9156 11.6172 96.4781 11.4141C96.0406 11.2109 95.4742 11 94.7789 10.7812C94.0055 10.5312 93.2711 10.25 92.5758 9.9375C91.8883 9.625 91.2789 9.26172 90.7477 8.84766C90.2242 8.42578 89.8102 7.9375 89.5055 7.38281C89.2086 6.82812 89.0602 6.18359 89.0602 5.44922C89.0602 4.73828 89.2164 4.09375 89.5289 3.51562C89.8414 2.92969 90.2789 2.42969 90.8414 2.01562C91.4039 1.59375 92.068 1.26953 92.8336 1.04297C93.607 0.816406 94.4547 0.703125 95.3766 0.703125C96.6344 0.703125 97.732 0.929687 98.6695 1.38281C99.607 1.83594 100.334 2.45703 100.849 3.24609C101.373 4.03516 101.634 4.9375 101.634 5.95312H98.1422C98.1422 5.45312 98.0367 5.01562 97.8258 4.64062C97.6227 4.25781 97.3102 3.95703 96.8883 3.73828C96.4742 3.51953 95.9508 3.41016 95.318 3.41016C94.7086 3.41016 94.2008 3.50391 93.7945 3.69141C93.3883 3.87109 93.0836 4.11719 92.8805 4.42969C92.6773 4.73438 92.5758 5.07812 92.5758 5.46094C92.5758 5.75 92.6461 6.01172 92.7867 6.24609C92.9352 6.48047 93.1539 6.69922 93.443 6.90234C93.732 7.10547 94.0875 7.29688 94.5094 7.47656C94.9312 7.65625 95.4195 7.83203 95.9742 8.00391C96.9039 8.28516 97.7203 8.60156 98.4234 8.95312C99.1344 9.30469 99.7281 9.69922 100.205 10.1367C100.681 10.5742 101.041 11.0703 101.283 11.625C101.525 12.1797 101.646 12.8086 101.646 13.5117C101.646 14.2539 101.502 14.918 101.212 15.5039C100.923 16.0898 100.505 16.5859 99.9586 16.9922C99.4117 17.3984 98.7594 17.707 98.0016 17.918C97.2437 18.1289 96.3961 18.2344 95.4586 18.2344C94.6148 18.2344 93.7828 18.125 92.9625 17.9062C92.1422 17.6797 91.3961 17.3398 90.7242 16.8867C90.0602 16.4336 89.5289 15.8555 89.1305 15.1523C88.732 14.4492 88.5328 13.6172 88.5328 12.6562H92.0602C92.0602 13.1875 92.1422 13.6367 92.3062 14.0039C92.4703 14.3711 92.7008 14.668 92.9977 14.8945C93.3023 15.1211 93.6617 15.2852 94.0758 15.3867C94.4977 15.4883 94.9586 15.5391 95.4586 15.5391C96.068 15.5391 96.568 15.4531 96.9586 15.2812C97.357 15.1094 97.65 14.8711 97.8375 14.5664C98.0328 14.2617 98.1305 13.918 98.1305 13.5352ZM109.482 0.9375H112.459L116.842 13.4648L121.224 0.9375H124.201L118.037 18H115.646L109.482 0.9375ZM107.877 0.9375H110.842L111.381 13.1484V18H107.877V0.9375ZM122.842 0.9375H125.818V18H122.302V13.1484L122.842 0.9375ZM151.44 13.5352C151.44 13.2305 151.393 12.957 151.299 12.7148C151.213 12.4648 151.049 12.2383 150.807 12.0352C150.565 11.8242 150.225 11.6172 149.787 11.4141C149.35 11.2109 148.783 11 148.088 10.7812C147.315 10.5312 146.58 10.25 145.885 9.9375C145.197 9.625 144.588 9.26172 144.057 8.84766C143.533 8.42578 143.119 7.9375 142.815 7.38281C142.518 6.82812 142.369 6.18359 142.369 5.44922C142.369 4.73828 142.525 4.09375 142.838 3.51562C143.15 2.92969 143.588 2.42969 144.15 2.01562C144.713 1.59375 145.377 1.26953 146.143 1.04297C146.916 0.816406 147.764 0.703125 148.686 0.703125C149.943 0.703125 151.041 0.929687 151.979 1.38281C152.916 1.83594 153.643 2.45703 154.158 3.24609C154.682 4.03516 154.943 4.9375 154.943 5.95312H151.451C151.451 5.45312 151.346 5.01562 151.135 4.64062C150.932 4.25781 150.619 3.95703 150.197 3.73828C149.783 3.51953 149.26 3.41016 148.627 3.41016C148.018 3.41016 147.51 3.50391 147.104 3.69141C146.697 3.87109 146.393 4.11719 146.19 4.42969C145.986 4.73438 145.885 5.07812 145.885 5.46094C145.885 5.75 145.955 6.01172 146.096 6.24609C146.244 6.48047 146.463 6.69922 146.752 6.90234C147.041 7.10547 147.397 7.29688 147.818 7.47656C148.24 7.65625 148.729 7.83203 149.283 8.00391C150.213 8.28516 151.029 8.60156 151.732 8.95312C152.443 9.30469 153.037 9.69922 153.514 10.1367C153.99 10.5742 154.35 11.0703 154.592 11.625C154.834 12.1797 154.955 12.8086 154.955 13.5117C154.955 14.2539 154.811 14.918 154.522 15.5039C154.232 16.0898 153.815 16.5859 153.268 16.9922C152.721 17.3984 152.068 17.707 151.311 17.918C150.553 18.1289 149.705 18.2344 148.768 18.2344C147.924 18.2344 147.092 18.125 146.272 17.9062C145.451 17.6797 144.705 17.3398 144.033 16.8867C143.369 16.4336 142.838 15.8555 142.44 15.1523C142.041 14.4492 141.842 13.6172 141.842 12.6562H145.369C145.369 13.1875 145.451 13.6367 145.615 14.0039C145.779 14.3711 146.01 14.668 146.307 14.8945C146.611 15.1211 146.971 15.2852 147.385 15.3867C147.807 15.4883 148.268 15.5391 148.768 15.5391C149.377 15.5391 149.877 15.4531 150.268 15.2812C150.666 15.1094 150.959 14.8711 151.147 14.5664C151.342 14.2617 151.44 13.918 151.44 13.5352ZM160.436 11.7891V11.543C160.436 10.6133 160.569 9.75781 160.834 8.97656C161.1 8.1875 161.487 7.50391 161.994 6.92578C162.502 6.34766 163.127 5.89844 163.869 5.57812C164.612 5.25 165.463 5.08594 166.424 5.08594C167.385 5.08594 168.24 5.25 168.99 5.57812C169.74 5.89844 170.369 6.34766 170.877 6.92578C171.393 7.50391 171.783 8.1875 172.049 8.97656C172.315 9.75781 172.447 10.6133 172.447 11.543V11.7891C172.447 12.7109 172.315 13.5664 172.049 14.3555C171.783 15.1367 171.393 15.8203 170.877 16.4062C170.369 16.9844 169.744 17.4336 169.002 17.7539C168.26 18.0742 167.408 18.2344 166.447 18.2344C165.487 18.2344 164.631 18.0742 163.881 17.7539C163.139 17.4336 162.51 16.9844 161.994 16.4062C161.487 15.8203 161.1 15.1367 160.834 14.3555C160.569 13.5664 160.436 12.7109 160.436 11.7891ZM163.811 11.543V11.7891C163.811 12.3203 163.858 12.8164 163.951 13.2773C164.045 13.7383 164.194 14.1445 164.397 14.4961C164.608 14.8398 164.881 15.1094 165.217 15.3047C165.553 15.5 165.963 15.5977 166.447 15.5977C166.916 15.5977 167.319 15.5 167.655 15.3047C167.99 15.1094 168.26 14.8398 168.463 14.4961C168.666 14.1445 168.815 13.7383 168.908 13.2773C169.01 12.8164 169.061 12.3203 169.061 11.7891V11.543C169.061 11.0273 169.01 10.543 168.908 10.0898C168.815 9.62891 168.662 9.22266 168.451 8.87109C168.248 8.51172 167.979 8.23047 167.643 8.02734C167.307 7.82422 166.901 7.72266 166.424 7.72266C165.947 7.72266 165.541 7.82422 165.205 8.02734C164.877 8.23047 164.608 8.51172 164.397 8.87109C164.194 9.22266 164.045 9.62891 163.951 10.0898C163.858 10.543 163.811 11.0273 163.811 11.543ZM181.924 0V18H178.537V0H181.924ZM196.053 14.9648V5.32031H199.428V18H196.253L196.053 14.9648ZM196.428 12.3633L197.424 12.3398C197.424 13.1836 197.327 13.9688 197.131 14.6953C196.936 15.4141 196.643 16.0391 196.253 16.5703C195.862 17.0938 195.37 17.5039 194.776 17.8008C194.182 18.0898 193.483 18.2344 192.678 18.2344C192.061 18.2344 191.491 18.1484 190.967 17.9766C190.452 17.7969 190.006 17.5195 189.631 17.1445C189.264 16.7617 188.975 16.2734 188.764 15.6797C188.561 15.0781 188.46 14.3555 188.46 13.5117V5.32031H191.835V13.5352C191.835 13.9102 191.878 14.2266 191.963 14.4844C192.057 14.7422 192.186 14.9531 192.35 15.1172C192.514 15.2812 192.706 15.3984 192.924 15.4688C193.151 15.5391 193.401 15.5742 193.674 15.5742C194.37 15.5742 194.917 15.4336 195.315 15.1523C195.721 14.8711 196.006 14.4883 196.17 14.0039C196.342 13.5117 196.428 12.9648 196.428 12.3633ZM212.057 5.32031V7.71094H204.675V5.32031H212.057ZM206.503 2.19141H209.878V14.1797C209.878 14.5469 209.925 14.8281 210.018 15.0234C210.12 15.2188 210.268 15.3555 210.464 15.4336C210.659 15.5039 210.905 15.5391 211.202 15.5391C211.413 15.5391 211.6 15.5312 211.764 15.5156C211.936 15.4922 212.081 15.4688 212.198 15.4453L212.21 17.9297C211.921 18.0234 211.608 18.0977 211.272 18.1523C210.936 18.207 210.565 18.2344 210.159 18.2344C209.417 18.2344 208.768 18.1133 208.214 17.8711C207.667 17.6211 207.245 17.2227 206.948 16.6758C206.651 16.1289 206.503 15.4102 206.503 14.5195V2.19141ZM221.382 5.32031V18H217.995V5.32031H221.382ZM217.784 2.01562C217.784 1.52344 217.956 1.11719 218.3 0.796875C218.643 0.476563 219.104 0.316406 219.682 0.316406C220.253 0.316406 220.71 0.476563 221.054 0.796875C221.405 1.11719 221.581 1.52344 221.581 2.01562C221.581 2.50781 221.405 2.91406 221.054 3.23438C220.71 3.55469 220.253 3.71484 219.682 3.71484C219.104 3.71484 218.643 3.55469 218.3 3.23438C217.956 2.91406 217.784 2.50781 217.784 2.01562ZM227.472 11.7891V11.543C227.472 10.6133 227.605 9.75781 227.87 8.97656C228.136 8.1875 228.522 7.50391 229.03 6.92578C229.538 6.34766 230.163 5.89844 230.905 5.57812C231.647 5.25 232.499 5.08594 233.46 5.08594C234.421 5.08594 235.276 5.25 236.026 5.57812C236.776 5.89844 237.405 6.34766 237.913 6.92578C238.429 7.50391 238.819 8.1875 239.085 8.97656C239.351 9.75781 239.483 10.6133 239.483 11.543V11.7891C239.483 12.7109 239.351 13.5664 239.085 14.3555C238.819 15.1367 238.429 15.8203 237.913 16.4062C237.405 16.9844 236.78 17.4336 236.038 17.7539C235.296 18.0742 234.444 18.2344 233.483 18.2344C232.522 18.2344 231.667 18.0742 230.917 17.7539C230.175 17.4336 229.546 16.9844 229.03 16.4062C228.522 15.8203 228.136 15.1367 227.87 14.3555C227.605 13.5664 227.472 12.7109 227.472 11.7891ZM230.847 11.543V11.7891C230.847 12.3203 230.894 12.8164 230.987 13.2773C231.081 13.7383 231.23 14.1445 231.433 14.4961C231.644 14.8398 231.917 15.1094 232.253 15.3047C232.589 15.5 232.999 15.5977 233.483 15.5977C233.952 15.5977 234.355 15.5 234.69 15.3047C235.026 15.1094 235.296 14.8398 235.499 14.4961C235.702 14.1445 235.851 13.7383 235.944 13.2773C236.046 12.8164 236.097 12.3203 236.097 11.7891V11.543C236.097 11.0273 236.046 10.543 235.944 10.0898C235.851 9.62891 235.698 9.22266 235.487 8.87109C235.284 8.51172 235.015 8.23047 234.679 8.02734C234.343 7.82422 233.937 7.72266 233.46 7.72266C232.983 7.72266 232.577 7.82422 232.241 8.02734C231.913 8.23047 231.644 8.51172 231.433 8.87109C231.23 9.22266 231.081 9.62891 230.987 10.0898C230.894 10.543 230.847 11.0273 230.847 11.543ZM248.702 8.02734V18H245.327V5.32031H248.491L248.702 8.02734ZM248.21 11.2148H247.296C247.296 10.2773 247.417 9.43359 247.659 8.68359C247.902 7.92578 248.241 7.28125 248.679 6.75C249.116 6.21094 249.636 5.80078 250.238 5.51953C250.847 5.23047 251.527 5.08594 252.277 5.08594C252.87 5.08594 253.413 5.17188 253.905 5.34375C254.398 5.51562 254.82 5.78906 255.171 6.16406C255.53 6.53906 255.804 7.03516 255.991 7.65234C256.187 8.26953 256.284 9.02344 256.284 9.91406V18H252.886V9.90234C252.886 9.33984 252.808 8.90234 252.652 8.58984C252.495 8.27734 252.265 8.05859 251.96 7.93359C251.663 7.80078 251.296 7.73438 250.859 7.73438C250.405 7.73438 250.011 7.82422 249.675 8.00391C249.347 8.18359 249.073 8.43359 248.855 8.75391C248.644 9.06641 248.484 9.43359 248.374 9.85547C248.265 10.2773 248.21 10.7305 248.21 11.2148Z" fill="white"/>
</svg>
